<svg width="1110" height="340" viewBox="0 0 1110 340" fill="none" xmlns="http://www.w3.org/2000/svg">
<path d="M11.1719 51.1016C16.5625 51.1016 20.6641 54.4609 20.6641 59.2266C20.6641 63.9141 16.5625 67.3125 11.1719 67.3125C5.66406 67.3125 1.60156 63.9141 1.60156 59.2266C1.60156 54.4609 5.66406 51.1016 11.1719 51.1016ZM11.1719 55.1641C8.4375 55.1641 6.40625 56.6484 6.44531 59.2266C6.40625 61.7656 8.4375 63.2891 11.1719 63.2891C13.8672 63.2891 15.8594 61.7656 15.8594 59.2266C15.8594 56.6484 13.8672 55.1641 11.1719 55.1641ZM30.8203 50.0469V67.8594H25.8203V50.0469H30.8203ZM30.8203 69.3438V78.9922H11.9141V81.2969H31.7969V85.2031H7.03125V75.3594H25.8594V73.1719H6.95312V69.3438H30.8203ZM48.5938 55.6328C48.5938 59.9297 51.0938 64.0703 56.7188 65.8281L54.0625 69.6953C50.293 68.4453 47.6562 66.0234 46.1328 62.8984C44.5898 66.4922 41.8359 69.3047 37.7734 70.6719L35.0781 66.7656C41.0156 64.7734 43.5547 60.0469 43.5938 55.1641V51.9219H48.5938V55.6328ZM63.8281 50.0469V58.3672H68.6328V62.5078H63.8281V71.1406H58.8281V50.0469H63.8281ZM52.1875 71.8438C59.5312 71.8438 64.1797 74.3828 64.1797 78.7188C64.1797 83.0938 59.5312 85.5938 52.1875 85.5938C44.6875 85.5938 40 83.0938 40 78.7188C40 74.3828 44.6875 71.8438 52.1875 71.8438ZM52.1875 75.75C47.5 75.75 44.9609 76.7656 45 78.7188C44.9609 80.75 47.5 81.6875 52.1875 81.6875C56.7969 81.6875 59.2578 80.75 59.2578 78.7188C59.2578 76.7656 56.7969 75.75 52.1875 75.75ZM81.7188 52.4297C87.3438 52.3906 91.5625 56.0625 91.5625 61.1406C91.5625 66.2578 87.3438 69.8906 81.7188 69.8906C76.0938 69.8906 71.8359 66.2578 71.8359 61.1406C71.8359 56.0625 76.0938 52.3906 81.7188 52.4297ZM81.7188 56.7266C78.9062 56.7266 76.7578 58.3672 76.7969 61.1406C76.7578 63.9531 78.9062 65.5547 81.7188 65.5547C84.5312 65.5547 86.6797 63.9531 86.7188 61.1406C86.6797 58.3672 84.5703 56.7266 81.7188 56.7266ZM100.078 50.0469V85.6719H95.1172V50.0469H100.078ZM70.3516 74.3438C76.6797 74.3828 85.4688 74.2656 93.0859 73.2109L93.4766 76.8047C85.5859 78.3281 77.1484 78.4062 70.9375 78.4062L70.3516 74.3438ZM146.523 77.3516V81.4531H113.984V77.3516H127.695V70.0859H117.422V52.6641H142.891V70.0859H132.656V77.3516H146.523ZM122.344 56.6484V66.1797H137.969V56.6484H122.344ZM181.055 67.5859V71.5703H148.555V67.5859H181.055ZM177.5 60.7109V64.6953H152.5V51.3359H177.148V55.3203H157.461V60.7109H177.5ZM177.695 80.9453V84.9297H152.461V74.3438H157.383V80.9453H177.695ZM224.766 64.1484V68.0938H211.016V70.3594H220.82V79.4609H201.016V81.6094H221.758V85.3594H196.133V75.9453H215.898V74.1094H196.094V70.3594H206.016V68.0938H192.344V64.1484H224.766ZM220.664 51.0625V62.2734H196.367V51.0625H220.664ZM201.25 54.9297V58.4453H215.703V54.9297H201.25ZM256.875 50.0859V76.0625H251.914V64.4609H245.547V60.3594H251.914V50.0859H256.875ZM245.859 52.7031C245.859 62.2344 239.805 69.2656 229.414 72.5078L227.383 68.5625C234.746 66.2578 239.492 62.0195 240.43 56.7656H229.219V52.7031H245.859ZM257.773 80.9844V84.9688H233.438V73.4453H238.516V80.9844H257.773ZM277.695 50.5547C285.859 50.5547 290.586 52.7031 290.625 56.6094C290.586 60.5547 285.859 62.7031 277.695 62.7031C269.492 62.7031 264.727 60.5547 264.727 56.6094C264.727 52.7031 269.492 50.5547 277.695 50.5547ZM277.695 54.1875C272.461 54.1875 269.922 55.0469 269.961 56.6094C269.922 58.3672 272.461 59.0312 277.695 59.0312C282.969 59.0312 285.469 58.3672 285.469 56.6094C285.469 55.0469 282.969 54.1875 277.695 54.1875ZM293.906 64.3828V68.3281H261.484V64.3828H293.906ZM289.961 70.3984V79.4609H270.156V81.6094H290.898V85.3594H265.273V75.9844H285.039V74.0312H265.234V70.3984H289.961ZM31.0156 106.047V141.594H26.0547V123.781H18.9844V119.719H26.0547V106.047H31.0156ZM19.1797 109.758C19.1797 120.5 15.7031 129.25 3.28125 135.422L0.703125 131.516C9.6875 127.082 13.3984 121.438 14.1797 113.664H2.38281V109.758H19.1797ZM50.1172 109.484V123.195H41.4062V129.562C44.7852 129.523 48.0078 129.387 51.6406 128.82L51.9922 132.805C47.3438 133.586 43.5156 133.703 39.1016 133.703H36.6406V119.211H45.3125V113.508H36.6016V109.484H50.1172ZM66.3672 106.047V141.594H61.6406V123.508H58.2031V139.875H53.6328V106.633H58.2031V119.484H61.6406V106.047H66.3672ZM87.3438 111.477V115.422H70.1562V111.477H76.3281V107.023H81.25V111.477H87.3438ZM78.8281 117.023C83.3594 117.023 86.6016 120.539 86.6406 125.461C86.6016 130.422 83.3594 133.938 78.8281 133.938C74.2969 133.938 70.9766 130.422 70.9766 125.461C70.9766 120.539 74.2969 117.023 78.8281 117.023ZM78.8281 121.164C76.7578 121.164 75.3516 122.766 75.3516 125.461C75.3516 128.156 76.7578 129.719 78.8281 129.719C80.8203 129.719 82.2266 128.156 82.2656 125.461C82.2266 122.766 80.8203 121.164 78.8281 121.164ZM100.938 106.047V141.594H96.2109V124.484H93.3203V140.07H88.6719V106.75H93.3203V120.5H96.2109V106.047H100.938ZM146.523 133.391V137.453H113.984V133.391H127.695V126.828H117.422V108.312H122.422V113.82H137.93V108.312H142.891V126.828H132.656V133.391H146.523ZM122.422 122.844H137.93V117.805H122.422V122.844ZM159.961 114.992C159.961 120.734 161.562 126.672 166.406 129.797L163.711 133.664C160.645 131.809 158.691 128.762 157.578 125.109C156.289 129.133 154.16 132.492 150.938 134.445L147.891 130.773C153.164 127.492 155.117 121.242 155.117 115.227V109.094H159.961V114.992ZM179.375 106.047V141.594H174.609V106.047H179.375ZM171.914 106.555V139.953H167.266V122.102H162.656V118.039H167.266V106.555H171.914ZM215.664 133.352V137.453H183.125V133.352H190.391V124.641C187.637 123 185.977 120.48 185.977 117.336C185.977 111.594 191.602 107.766 199.336 107.766C207.031 107.766 212.695 111.594 212.734 117.336C212.715 120.402 211.094 122.902 208.438 124.562V133.352H215.664ZM199.336 111.711C194.258 111.711 190.898 113.742 190.898 117.336C190.898 120.812 194.258 122.961 199.336 122.961C204.375 122.961 207.773 120.812 207.812 117.336C207.773 113.742 204.375 111.711 199.336 111.711ZM195.312 133.352H203.398V126.438C202.129 126.691 200.762 126.828 199.336 126.828C197.91 126.828 196.562 126.711 195.312 126.438V133.352Z" fill="#374151"/>
<rect y="184" width="357" height="56" rx="28" fill="#3692FF"/>
<path d="M138.979 204.156V205.738C138.979 207.389 138.979 209.195 138.51 211.695H140.951V213.453H133.939V220.758H131.752V213.453H124.857V211.695H136.303C136.791 209.293 136.811 207.496 136.811 205.914H126.752V204.156H138.979ZM156.928 203.102V213.414H154.76V211.461H150.561V209.703H154.76V207.809H150.736C149.613 210.621 147.045 212.584 143.197 213.648L142.318 211.93C146.449 210.807 148.646 208.717 148.998 206.09H143.256V204.332H151.361C151.361 204.947 151.312 205.533 151.205 206.09H154.76V203.102H156.928ZM151.088 213.609C154.662 213.609 157.045 214.957 157.045 217.125C157.045 219.293 154.662 220.641 151.088 220.641C147.475 220.641 145.092 219.293 145.092 217.125C145.092 214.957 147.475 213.609 151.088 213.609ZM151.088 215.309C148.705 215.309 147.26 215.953 147.26 217.125C147.26 218.277 148.705 218.922 151.088 218.922C153.412 218.922 154.877 218.277 154.877 217.125C154.877 215.953 153.412 215.309 151.088 215.309ZM173.256 203.082V210.113H175.971V211.91H173.256V220.738H171.107V203.082H173.256ZM169.74 205.797V207.535H159.33V205.797H163.51V203.336H165.678V205.797H169.74ZM164.604 208.688C167.143 208.688 169.037 210.406 169.037 212.848C169.037 215.289 167.143 216.988 164.604 216.988C162.025 216.988 160.131 215.289 160.15 212.848C160.131 210.406 162.025 208.688 164.604 208.688ZM164.604 210.465C163.217 210.465 162.221 211.402 162.221 212.848C162.221 214.293 163.217 215.211 164.604 215.191C165.951 215.211 166.947 214.293 166.967 212.848C166.947 211.402 165.951 210.465 164.604 210.465ZM191.498 203.082V220.758H189.33V211.363H186.303V209.586H189.33V203.082H191.498ZM185.287 204.625V211.09H179.506V214.801C182.123 214.791 184.242 214.703 186.615 214.273L186.791 216.051C184.154 216.52 181.811 216.617 178.764 216.617H177.357V209.332H183.158V206.383H177.299V204.625H185.287ZM212.572 203.082V209.977H215.189V211.793H212.572V220.699H210.404V203.082H212.572ZM207.904 204.918C207.904 210.113 205.756 214.664 199.877 217.555L198.646 215.875C202.943 213.736 205.268 210.729 205.717 206.715H199.604V204.918H207.904ZM230.775 203.082V220.738H228.588V203.082H230.775ZM225.502 204.957C225.502 210.211 223.471 214.684 217.279 217.613L216.146 215.875C220.766 213.678 222.914 210.689 223.295 206.676H217.045V204.957H225.502Z" fill="#F9FAFB"/>
<g clip-path="url(#clip0_46091_153)">
<rect width="102.494" height="189.553" rx="8" transform="matrix(0.967453 -0.25305 0.24992 0.968267 422.375 94.0405)" fill="#FFE7D1"/>
<path d="M538.537 160.438C537.432 156.16 540.002 151.786 544.277 150.667L586.373 139.657C590.648 138.539 595.008 141.1 596.112 145.378L620.085 238.256L562.509 253.316L538.537 160.438Z" fill="#FFE7D1"/>
<path d="M384.076 187.089C382.972 182.811 385.542 178.437 389.816 177.318L439.109 164.425C443.384 163.307 447.744 165.869 448.848 170.147L476.145 275.905L411.373 292.847L384.076 187.089Z" fill="#FFE7D1"/>
<rect width="16.5313" height="19.1216" rx="4" transform="matrix(0.967453 -0.25305 0.24992 0.968267 444.122 105.538)" fill="#F5C498"/>
<rect width="16.5313" height="19.1216" rx="4" transform="matrix(0.967453 -0.25305 0.24992 0.968267 468.113 99.2633)" fill="#F5C498"/>
<rect width="16.5313" height="19.1216" rx="4" transform="matrix(0.967453 -0.25305 0.24992 0.968267 492.103 92.9884)" fill="#F5C498"/>
<rect width="16.5313" height="19.1216" rx="4" transform="matrix(0.967453 -0.25305 0.24992 0.968267 451.394 133.713)" fill="#F5C498"/>
<rect width="16.5313" height="19.1216" rx="4" transform="matrix(0.967453 -0.25305 0.24992 0.968267 475.384 127.437)" fill="#F5C498"/>
<rect width="16.5313" height="19.1216" rx="4" transform="matrix(0.967453 -0.25305 0.24992 0.968267 397.39 187.528)" fill="#F5C498"/>
<rect width="16.5313" height="19.1216" rx="4" transform="matrix(0.967453 -0.25305 0.24992 0.968267 421.38 181.254)" fill="#F5C498"/>
<rect width="16.5313" height="19.1216" rx="4" transform="matrix(0.967453 -0.25305 0.24992 0.968267 548.449 162.465)" fill="#F5C498"/>
<rect width="16.5313" height="19.1216" rx="4" transform="matrix(0.967453 -0.25305 0.24992 0.968267 572.439 156.191)" fill="#F5C498"/>
<rect width="16.5313" height="19.1216" rx="4" transform="matrix(0.967453 -0.25305 0.24992 0.968267 499.375 121.164)" fill="#F5C498"/>
<ellipse cx="737" cy="349.862" rx="373" ry="146.383" fill="#D7A37E"/>
<ellipse cx="737" cy="349.862" rx="373" ry="146.383" fill="url(#paint0_linear_46091_153)"/>
<path d="M680.937 150.284C683.934 167.09 703.589 169.137 713.578 168.598L736.586 201.456C736.23 205.047 724.126 220.524 679.607 204.149C628.773 185.452 636.576 140.281 650.437 134.124C668.63 126.045 677.192 129.276 680.937 150.284Z" fill="#222327"/>
<path d="M848.253 117.253C848.253 159.694 807.351 175.47 751.558 175.47C695.765 175.47 655.788 159.694 655.788 117.253C655.788 67.8846 695.765 24.1051 751.558 24.1051C807.351 24.1051 848.253 64.1587 848.253 117.253Z" fill="white"/>
<path d="M700.736 224.82C700.736 206.733 707.248 179.442 713.043 168.058H793.841C799.465 178.16 804.941 203.655 804.532 224.82C804.02 251.277 776.921 253.201 751.867 254.163C726.812 255.125 700.736 247.429 700.736 224.82Z" fill="white"/>
<path d="M710.696 259.427C705.551 249.935 700.735 244.548 700.735 221.386L734.911 231.34C740.302 231.251 751.375 233.214 752.537 241.774C753.99 252.475 749.12 265.718 746.786 267.299C744.92 268.563 738.481 268.284 735.495 267.986L724.031 265.808C719.83 267.742 715.342 267.999 710.696 259.427Z" fill="white"/>
<path d="M794.499 259.427C799.644 249.935 804.46 244.548 804.46 221.386L770.284 231.34C764.893 231.251 753.82 233.214 752.658 241.774C751.205 252.475 756.076 265.718 758.409 267.299C760.276 268.563 766.715 268.284 769.701 267.986L781.164 265.808C785.365 267.742 789.854 267.999 794.499 259.427Z" fill="white"/>
<path d="M713.317 172.368L710.106 171.83L707.431 178.832L707.966 182.603L713.317 172.368Z" fill="#222327"/>
<path d="M747.823 266.542C747.823 271.363 743.608 273.635 730.487 273.635C717.366 273.635 709.297 271.909 709.297 267.088C709.297 262.267 710.153 256.937 728.025 256.937C741.146 256.937 747.823 261.721 747.823 266.542Z" fill="white"/>
<path d="M758.525 266.542C758.525 271.363 762.741 273.635 775.862 273.635C788.983 273.635 797.051 271.909 797.051 267.088C797.051 262.267 796.195 256.937 778.323 256.937C765.202 256.937 758.525 261.721 758.525 266.542Z" fill="white"/>
<rect width="38.5609" height="49.3747" rx="19.2804" transform="matrix(0.92957 -0.368645 0.364428 0.931231 777.189 175.224)" fill="#222327"/>
<path d="M748.872 26.1173C752.435 38.4683 743.015 52.0779 732.218 55.2336C721.422 58.3894 706.671 51.8442 703.109 39.4933C699.546 27.1423 707.025 10.0293 717.822 6.8735C732.218 2.66549 745.31 13.7664 748.872 26.1173Z" fill="#222327"/>
<path d="M754.807 26.1173C751.245 38.4683 760.664 52.0779 771.461 55.2336C782.258 58.3894 797.008 51.8442 800.571 39.4933C804.133 27.1423 796.655 10.0293 785.858 6.8735C771.461 2.66549 758.37 13.7664 754.807 26.1173Z" fill="#222327"/>
<path d="M820.493 116.537C820.493 147.617 790.406 159.17 749.366 159.17C708.326 159.17 678.92 147.617 678.92 116.537C678.92 80.384 708.326 48.324 749.366 48.324C790.406 48.324 820.493 77.6555 820.493 116.537Z" fill="#F3D6DD"/>
<path d="M735.223 110.146C735.223 120.435 728.64 131.722 719.442 131.722C710.243 131.722 695.384 123.338 695.384 107.969C695.384 93.531 711.436 88.3961 728.024 91.0327C738.191 92.6487 735.223 99.8569 735.223 110.146Z" fill="#222327"/>
<path d="M727.527 109.105C727.527 110.649 727.064 111.9 724.751 111.9C722.438 111.9 721.975 110.649 721.975 109.105C721.975 107.562 722.9 106.311 724.751 106.311C726.602 106.311 727.527 107.562 727.527 109.105Z" fill="white"/>
<path d="M763.207 110.145C763.207 120.434 769.79 131.721 778.989 131.721C788.187 131.721 803.047 123.338 803.047 107.969C803.047 93.5308 786.994 88.3959 770.406 91.0325C760.24 92.6484 763.207 99.8566 763.207 110.145Z" fill="#222327"/>
<path d="M770.904 109.105C770.904 110.649 771.367 111.9 773.68 111.9C775.993 111.9 776.456 110.649 776.456 109.105C776.456 107.562 775.53 106.311 773.68 106.311C771.829 106.311 770.904 107.562 770.904 109.105Z" fill="white"/>
<path d="M738.725 124.949C738.12 124.063 736.911 123.835 736.025 124.44C735.139 125.045 734.911 126.254 735.516 127.14L738.725 124.949ZM748.893 122.812L750.731 122.185C750.463 121.398 749.724 120.87 748.893 120.87C748.062 120.87 747.323 121.398 747.054 122.185L748.893 122.812ZM762.269 127.14C762.874 126.254 762.646 125.045 761.76 124.44C760.874 123.835 759.665 124.063 759.06 124.949L762.269 127.14ZM735.516 127.14C736.022 127.881 736.936 128.867 738.16 129.682C739.395 130.504 741.052 131.219 743.007 131.219V127.333C742.018 127.333 741.1 126.971 740.313 126.447C739.513 125.915 738.955 125.285 738.725 124.949L735.516 127.14ZM743.007 131.219C745.441 131.219 747.234 129.48 748.331 128.019C749.495 126.47 750.315 124.659 750.731 123.44L747.054 122.185C746.734 123.12 746.084 124.541 745.224 125.685C744.298 126.918 743.515 127.333 743.007 127.333V131.219ZM747.054 123.44C747.47 124.659 748.291 126.47 749.455 128.019C750.552 129.48 752.344 131.219 754.779 131.219V127.333C754.27 127.333 753.488 126.918 752.561 125.685C751.702 124.541 751.051 123.12 750.731 122.185L747.054 123.44ZM754.779 131.219C756.733 131.219 758.39 130.504 759.626 129.682C760.85 128.867 761.763 127.881 762.269 127.14L759.06 124.949C758.83 125.285 758.272 125.915 757.473 126.447C756.685 126.971 755.767 127.333 754.779 127.333V131.219Z" fill="#222327"/>
<path d="M758.693 121.151C758.693 122.635 752.095 124.52 749.773 125.137C749.248 125.277 748.706 125.277 748.181 125.137C745.859 124.52 739.261 122.635 739.261 121.151C739.261 119.351 744.633 117.425 748.977 117.425C753.321 117.425 758.693 119.351 758.693 121.151Z" fill="#222327"/>
<path d="M747.822 73.2567C720.823 73.2567 710.901 63.7405 709.296 58.1744L722.138 44.1694L749.963 39.3215L788.489 58.1744C786.17 62.6632 774.851 73.2567 747.822 73.2567Z" fill="#222327"/>
<path fill-rule="evenodd" clip-rule="evenodd" d="M751.558 175.604C807.351 175.604 848.253 159.828 848.253 117.386C848.253 64.2918 807.351 24.2383 751.558 24.2383C695.765 24.2383 655.788 68.0178 655.788 117.386C655.788 159.828 695.765 175.604 751.558 175.604ZM749.367 159.302C790.407 159.302 820.493 147.749 820.493 116.669C820.493 77.7875 790.407 48.456 749.367 48.456C708.327 48.456 678.921 80.5161 678.921 116.669C678.921 147.749 708.327 159.302 749.367 159.302Z" fill="white"/>
<path fill-rule="evenodd" clip-rule="evenodd" d="M795.252 172.367C782.319 175.216 767.55 176.512 751.558 176.512C736.948 176.512 723.422 175.43 711.415 173.071C706.094 185.882 700.736 209.862 700.736 226.269C700.736 248.878 726.813 256.574 751.867 255.612C776.921 254.65 804.02 252.726 804.532 226.269C804.906 206.882 800.344 183.862 795.252 172.367Z" fill="white"/>
<path fill-rule="evenodd" clip-rule="evenodd" d="M700.736 220.887C711.703 224.844 728.527 228.037 752.528 227.312C773.246 226.686 790.788 224.101 804.428 221.069C804.153 202.636 799.876 181.981 795.141 171.291C782.208 174.14 767.439 175.436 751.446 175.436C736.836 175.436 723.311 174.355 711.304 171.995C706.432 183.725 701.529 204.817 700.736 220.887Z" fill="#222327"/>
<path d="M774.578 202.533C777.03 180.353 788.225 174.084 798.749 171.032C803.029 169.79 809.986 169.955 813.731 171.571C818.266 173.527 823.363 177.496 827.108 186.653C830.854 195.81 835.578 209.535 837.718 223.54L837.747 223.727C839.888 237.736 843.153 259.091 800.536 259.091C765.424 259.091 772.345 222.722 774.578 202.533Z" fill="#3786E2"/>
<path d="M793.011 216.844C782.831 211.178 779.125 198.306 784.733 188.094L785.241 187.17C789.922 178.645 799.811 174.464 809.173 177.049C822.205 180.648 828.566 195.472 822.207 207.424L820.765 210.132C815.618 219.505 803.87 222.887 794.527 217.687L793.011 216.844Z" fill="#222327"/>
<path d="M707.431 188.528C705.719 190.683 703.329 204.508 702.08 210.613C701.545 210.613 698.335 209.715 697.8 209.536C697.265 203.072 702.08 188.528 707.431 188.528Z" fill="#1A1A1C"/>
<rect x="734.72" y="180.988" width="5.35087" height="16.1596" rx="2.67543" fill="white"/>
<path fill-rule="evenodd" clip-rule="evenodd" d="M734.721 193.915V194.472C734.721 195.95 735.919 197.148 737.396 197.148C738.874 197.148 740.072 195.95 740.072 194.472V193.915H734.721Z" fill="#256FC5"/>
<rect x="761.475" y="180.988" width="5.35087" height="16.1596" rx="2.67543" fill="white"/>
<path fill-rule="evenodd" clip-rule="evenodd" d="M761.475 193.915V194.472C761.475 195.95 762.673 197.148 764.151 197.148C765.628 197.148 766.826 195.95 766.826 194.472V193.915H761.475Z" fill="#256FC5"/>
<path d="M751.843 257.476C750.238 269.865 745.957 272.02 741.676 272.558L743.282 262.324C745.422 259.451 752.673 251.067 751.843 257.476Z" fill="white"/>
<path d="M752.98 257.678C754.585 270.067 759.335 273.366 768.967 273.366L761.541 262.526C759.401 259.653 752.149 251.269 752.98 257.678Z" fill="white"/>
<path fill-rule="evenodd" clip-rule="evenodd" d="M816.44 233.267C817.74 234.76 818.481 236.754 818.666 239.113C819.026 243.702 814.709 245.762 808.636 246.245C802.564 246.728 798.079 245.369 797.718 240.78C797.549 238.622 797.939 236.597 798.931 234.912C798.731 234.683 798.568 234.419 798.457 234.123C797.891 232.616 798.657 230.405 799.974 229.904C801.387 229.366 802.791 230.073 803.581 231.154C804.687 230.742 805.954 230.465 807.388 230.351C808.783 230.24 810.048 230.29 811.184 230.485C811.734 229.169 813.087 228.087 814.673 228.417C816.052 228.703 817.154 230.766 816.83 232.344C816.761 232.682 816.625 232.992 816.44 233.267Z" fill="#2D68AE"/>
<path d="M806.628 238.687C806.732 240.019 806.029 241.544 804.885 241.635C803.742 241.726 801.81 240.788 801.653 238.8C801.507 236.932 803.45 236.108 805.539 236.286C806.819 236.394 806.523 237.356 806.628 238.687Z" fill="#3475C2"/>
<path d="M804.473 238.658C804.494 238.919 804.588 239.124 804.979 239.093C805.37 239.062 805.432 238.845 805.411 238.584C805.391 238.323 805.218 238.124 804.905 238.149C804.592 238.174 804.453 238.398 804.473 238.658Z" fill="white"/>
<path d="M809.542 238.455C809.646 239.787 810.579 241.182 811.723 241.091C812.866 241 814.628 239.768 814.472 237.779C814.325 235.911 812.278 235.406 810.242 235.911C808.995 236.221 809.437 237.124 809.542 238.455Z" fill="#3475C2"/>
<path d="M811.665 238.087C811.685 238.348 811.624 238.565 811.233 238.597C810.842 238.628 810.748 238.423 810.727 238.162C810.707 237.901 810.846 237.677 811.159 237.652C811.472 237.627 811.645 237.826 811.665 238.087Z" fill="white"/>
<rect width="23.965" height="44.0725" rx="6" transform="matrix(0.984609 0.174771 -0.172533 0.985004 914.974 187.465)" fill="#DC9759"/>
<ellipse cx="38.0135" cy="38.2516" rx="38.0135" ry="38.2516" transform="matrix(0.984609 0.174771 -0.172533 0.985004 899.076 129.747)" fill="#54B858"/>
<ellipse cx="38.0135" cy="38.2516" rx="38.0135" ry="38.2516" transform="matrix(0.984609 0.174771 -0.172533 0.985004 899.076 129.747)" fill="url(#paint1_linear_46091_153)"/>
<rect width="23.9789" height="44.0472" rx="6" transform="matrix(0.938958 0.344031 -0.340018 0.940419 1012.9 211.825)" fill="#DC9759"/>
<ellipse cx="38.0355" cy="38.2296" rx="38.0355" ry="38.2296" transform="matrix(0.938958 0.344031 -0.340018 0.940419 1007.2 152.206)" fill="#54B858"/>
<ellipse cx="38.0355" cy="38.2296" rx="38.0355" ry="38.2296" transform="matrix(0.938958 0.344031 -0.340018 0.940419 1007.2 152.206)" fill="url(#paint2_linear_46091_153)"/>
</g>
<defs>
<linearGradient id="paint0_linear_46091_153" x1="737" y1="203.479" x2="737" y2="496.245" gradientUnits="userSpaceOnUse">
<stop stop-color="#E18745"/>
<stop offset="1" stop-color="#D7A37E" stop-opacity="0"/>
</linearGradient>
<linearGradient id="paint1_linear_46091_153" x1="38.0135" y1="0" x2="38.0135" y2="76.5031" gradientUnits="userSpaceOnUse">
<stop stop-color="#32A737"/>
<stop offset="1" stop-color="#54B858" stop-opacity="0"/>
</linearGradient>
<linearGradient id="paint2_linear_46091_153" x1="38.0355" y1="0" x2="38.0355" y2="76.4593" gradientUnits="userSpaceOnUse">
<stop stop-color="#32A737"/>
<stop offset="1" stop-color="#54B858" stop-opacity="0"/>
</linearGradient>
<clipPath id="clip0_46091_153">
<rect width="746" height="340" fill="white" transform="translate(364)"/>
</clipPath>
</defs>
</svg>
